<svg width="26" height="9" viewBox="0 0 26 9" fill="none" xmlns="http://www.w3.org/2000/svg">
<path d="M2.17 0.149902C3.36 0.149902 4.33 1.0499 4.33 2.2399V2.5999C4.33 3.6099 3.65 4.3899 2.73 4.6099L4.56 8.2099H3.29L1.51 4.6799H1.15V8.2099H0V0.149902H2.16H2.17ZM2.17 1.2299H1.16V3.5999H2.17C2.72 3.5999 3.18 3.1599 3.18 2.5899V2.2299C3.18 1.6799 2.72 1.2199 2.17 1.2199V1.2299Z" fill="black"/>
<path d="M9.61 8.2099H5.29V7.1299H6.87V1.2299H5.53V0.149902H8.02V7.1299H9.6V8.2099H9.61Z" fill="black"/>
<path d="M14.89 2.02V6.34C14.89 7.54 13.93 8.36 12.73 8.36C11.53 8.36 10.57 7.54 10.57 6.34V2.02C10.57 0.83 11.54 0 12.73 0C13.92 0 14.89 0.83 14.89 2.02ZM11.72 5.68L13.55 1.45C13.37 1.19 13.08 1.02 12.72 1.02C12.11 1.02 11.71 1.48 11.71 2.03V5.69L11.72 5.68ZM13.74 2.71L11.92 6.92C12.1 7.18 12.38 7.34 12.74 7.34C13.35 7.34 13.75 6.9 13.75 6.33V2.71H13.74Z" fill="black"/>
<path d="M20.17 2.02V6.34C20.17 7.54 19.21 8.36 18.01 8.36C16.81 8.36 15.85 7.54 15.85 6.34V2.02C15.85 0.83 16.82 0 18.01 0C19.2 0 20.17 0.83 20.17 2.02ZM17 5.68L18.84 1.45C18.66 1.19 18.37 1.02 18.01 1.02C17.4 1.02 17 1.48 17 2.03V5.69V5.68ZM19.02 2.71L17.2 6.92C17.38 7.18 17.66 7.34 18.02 7.34C18.63 7.34 19.03 6.9 19.03 6.33V2.71H19.02Z" fill="black"/>
<path d="M25.45 2.02V6.34C25.45 7.54 24.49 8.36 23.29 8.36C22.09 8.36 21.13 7.54 21.13 6.34V2.02C21.13 0.83 22.1 0 23.29 0C24.48 0 25.45 0.83 25.45 2.02ZM22.28 5.68L24.11 1.45C23.93 1.19 23.64 1.02 23.28 1.02C22.67 1.02 22.27 1.48 22.27 2.03V5.69L22.28 5.68ZM24.3 2.71L22.48 6.92C22.66 7.18 22.94 7.34 23.3 7.34C23.91 7.34 24.31 6.9 24.31 6.33V2.71H24.3Z" fill="black"/>
</svg>
