<svg width="151" height="24" viewBox="0 0 151 24" fill="none" xmlns="http://www.w3.org/2000/svg">
<path d="M0.365234 23V7.76H1.41523V10.43H1.53523C1.85523 9.71 2.37523 9.09 3.09523 8.57C3.81523 8.03 4.85523 7.76 6.21523 7.76H7.35523V8.75H6.03523C5.41523 8.75 4.82523 8.83 4.26523 8.99C3.70523 9.15 3.21523 9.39 2.79523 9.71C2.37523 10.03 2.03523 10.43 1.77523 10.91C1.53523 11.37 1.41523 11.91 1.41523 12.53V23H0.365234ZM15.9863 23.36C13.9663 23.36 12.3663 22.68 11.1863 21.32C10.0263 19.96 9.44633 17.98 9.44633 15.38C9.44633 12.8 10.0163 10.83 11.1563 9.47C12.2963 8.09 13.8663 7.4 15.8663 7.4C16.8063 7.4 17.6563 7.58 18.4163 7.94C19.1963 8.3 19.8563 8.81 20.3963 9.47C20.9563 10.13 21.3863 10.93 21.6863 11.87C21.9863 12.79 22.1363 13.82 22.1363 14.96V15.44H10.5563V16.25C10.5563 17.19 10.6763 18.04 10.9163 18.8C11.1563 19.56 11.5063 20.21 11.9663 20.75C12.4463 21.29 13.0163 21.71 13.6763 22.01C14.3563 22.29 15.1263 22.43 15.9863 22.43C18.4063 22.43 20.0763 21.27 20.9963 18.95L21.8063 19.4C21.3463 20.6 20.6263 21.56 19.6463 22.28C18.6663 23 17.4463 23.36 15.9863 23.36ZM15.8663 8.33C15.0263 8.33 14.2763 8.48 13.6163 8.78C12.9763 9.06 12.4263 9.47 11.9663 10.01C11.5063 10.55 11.1563 11.2 10.9163 11.96C10.6763 12.72 10.5563 13.56 10.5563 14.48V14.6H20.9963V14.42C20.9963 13.5 20.8663 12.67 20.6063 11.93C20.3663 11.17 20.0163 10.53 19.5563 10.01C19.1163 9.47 18.5763 9.06 17.9363 8.78C17.3163 8.48 16.6263 8.33 15.8663 8.33ZM27.3896 3.05C27.0696 3.05 26.8396 2.98 26.6996 2.84C26.5596 2.68 26.4896 2.49 26.4896 2.27V2C26.4896 1.78 26.5496 1.6 26.6696 1.46C26.8096 1.3 27.0396 1.22 27.3596 1.22C27.6796 1.22 27.9096 1.3 28.0496 1.46C28.1896 1.6 28.2596 1.78 28.2596 2V2.27C28.2596 2.49 28.1896 2.68 28.0496 2.84C27.9296 2.98 27.7096 3.05 27.3896 3.05ZM26.8496 7.76H27.8996V23H26.8496V7.76ZM33.9102 23V7.76H34.9602V10.1H35.0502C35.3502 9.36 35.8702 8.73 36.6102 8.21C37.3702 7.67 38.4102 7.4 39.7302 7.4C41.4102 7.4 42.6902 7.9 43.5702 8.9C44.4702 9.88 44.9202 11.32 44.9202 13.22V23H43.8702V13.4C43.8702 11.64 43.4902 10.36 42.7302 9.56C41.9902 8.74 40.9102 8.33 39.4902 8.33C38.9102 8.33 38.3402 8.41 37.7802 8.57C37.2402 8.73 36.7602 8.97 36.3402 9.29C35.9202 9.61 35.5802 10.01 35.3202 10.49C35.0802 10.97 34.9602 11.53 34.9602 12.17V23H33.9102ZM52.618 23C51.758 23 51.328 22.58 51.328 21.74V8.69H48.568V7.76H50.548C50.888 7.76 51.108 7.69 51.208 7.55C51.328 7.41 51.388 7.17 51.388 6.83V3.44H52.378V7.76H55.948V8.69H52.378V22.07H55.708V23H52.618ZM70.2073 23C69.3873 23 68.9573 22.58 68.9173 21.74V20.63H68.7973C68.4373 21.41 67.8673 22.06 67.0873 22.58C66.3073 23.1 65.2573 23.36 63.9373 23.36C62.3573 23.36 61.1373 22.98 60.2773 22.22C59.4173 21.46 58.9873 20.39 58.9873 19.01C58.9873 18.35 59.0873 17.75 59.2873 17.21C59.4873 16.67 59.8173 16.21 60.2773 15.83C60.7573 15.43 61.3673 15.13 62.1073 14.93C62.8673 14.71 63.7973 14.6 64.8973 14.6H68.8873V12.56C68.8873 11.12 68.5373 10.06 67.8373 9.38C67.1373 8.68 66.0973 8.33 64.7173 8.33C62.5773 8.33 61.0973 9.23 60.2773 11.03L59.5273 10.52C59.9473 9.58 60.5673 8.83 61.3873 8.27C62.2073 7.69 63.3273 7.4 64.7473 7.4C66.4473 7.4 67.7373 7.84 68.6173 8.72C69.4973 9.58 69.9373 10.82 69.9373 12.44V22.07H72.2773V23H70.2073ZM64.0273 22.43C64.6873 22.43 65.3073 22.35 65.8873 22.19C66.4873 22.01 67.0073 21.76 67.4473 21.44C67.8873 21.12 68.2373 20.72 68.4973 20.24C68.7573 19.76 68.8873 19.2 68.8873 18.56V15.44H64.8973C63.2173 15.44 61.9973 15.73 61.2373 16.31C60.4773 16.87 60.0973 17.62 60.0973 18.56V19.4C60.0973 20.4 60.4573 21.16 61.1773 21.68C61.9173 22.18 62.8673 22.43 64.0273 22.43ZM85.6712 20.66H85.5512C85.4112 21 85.2112 21.34 84.9512 21.68C84.7112 22 84.4012 22.29 84.0212 22.55C83.6612 22.79 83.2212 22.98 82.7012 23.12C82.1812 23.28 81.5812 23.36 80.9012 23.36C79.2212 23.36 77.9312 22.87 77.0312 21.89C76.1312 20.89 75.6812 19.44 75.6812 17.54V7.76H76.7312V17.36C76.7312 19.12 77.1112 20.41 77.8712 21.23C78.6312 22.03 79.7212 22.43 81.1412 22.43C81.7212 22.43 82.2812 22.35 82.8212 22.19C83.3812 22.03 83.8712 21.8 84.2912 21.5C84.7112 21.18 85.0412 20.78 85.2812 20.3C85.5412 19.8 85.6712 19.22 85.6712 18.56V7.76H86.7212V23H85.6712V20.66ZM96.819 23.36C95.559 23.36 94.459 23.13 93.519 22.67C92.599 22.21 91.789 21.49 91.089 20.51L91.899 19.91C92.579 20.81 93.299 21.46 94.059 21.86C94.839 22.24 95.769 22.43 96.849 22.43C98.209 22.43 99.239 22.15 99.939 21.59C100.639 21.03 100.989 20.22 100.989 19.16C100.989 18.14 100.689 17.38 100.089 16.88C99.509 16.38 98.609 16.03 97.389 15.83L96.099 15.62C95.419 15.52 94.799 15.37 94.239 15.17C93.699 14.97 93.229 14.71 92.829 14.39C92.449 14.05 92.149 13.64 91.929 13.16C91.729 12.68 91.629 12.1 91.629 11.42C91.629 10.76 91.749 10.18 91.989 9.68C92.249 9.18 92.599 8.76 93.039 8.42C93.499 8.08 94.029 7.83 94.629 7.67C95.249 7.49 95.909 7.4 96.609 7.4C97.889 7.4 98.929 7.63 99.729 8.09C100.529 8.53 101.189 9.05 101.709 9.65L100.959 10.34C100.739 10.08 100.489 9.83 100.209 9.59C99.949 9.35 99.649 9.14 99.309 8.96C98.969 8.76 98.569 8.61 98.109 8.51C97.669 8.39 97.159 8.33 96.579 8.33C95.379 8.33 94.419 8.59 93.699 9.11C92.999 9.63 92.649 10.39 92.649 11.39C92.649 12.41 92.949 13.16 93.549 13.64C94.149 14.1 95.059 14.43 96.279 14.63L97.569 14.84C98.989 15.06 100.079 15.5 100.839 16.16C101.619 16.8 102.009 17.77 102.009 19.07C102.009 20.43 101.549 21.49 100.629 22.25C99.709 22.99 98.439 23.36 96.819 23.36ZM111.992 23.36C109.972 23.36 108.372 22.68 107.192 21.32C106.032 19.96 105.452 17.98 105.452 15.38C105.452 12.8 106.022 10.83 107.162 9.47C108.302 8.09 109.872 7.4 111.872 7.4C112.812 7.4 113.662 7.58 114.422 7.94C115.202 8.3 115.862 8.81 116.402 9.47C116.962 10.13 117.392 10.93 117.692 11.87C117.992 12.79 118.142 13.82 118.142 14.96V15.44H106.562V16.25C106.562 17.19 106.682 18.04 106.922 18.8C107.162 19.56 107.512 20.21 107.972 20.75C108.452 21.29 109.022 21.71 109.682 22.01C110.362 22.29 111.132 22.43 111.992 22.43C114.412 22.43 116.082 21.27 117.002 18.95L117.812 19.4C117.352 20.6 116.632 21.56 115.652 22.28C114.672 23 113.452 23.36 111.992 23.36ZM111.872 8.33C111.032 8.33 110.282 8.48 109.622 8.78C108.982 9.06 108.432 9.47 107.972 10.01C107.512 10.55 107.162 11.2 106.922 11.96C106.682 12.72 106.562 13.56 106.562 14.48V14.6H117.002V14.42C117.002 13.5 116.872 12.67 116.612 11.93C116.372 11.17 116.022 10.53 115.562 10.01C115.122 9.47 114.582 9.06 113.942 8.78C113.322 8.48 112.632 8.33 111.872 8.33ZM122.855 23V7.76H123.905V10.1H123.995C124.295 9.36 124.815 8.73 125.555 8.21C126.315 7.67 127.355 7.4 128.675 7.4C130.355 7.4 131.635 7.9 132.515 8.9C133.415 9.88 133.865 11.32 133.865 13.22V23H132.815V13.4C132.815 11.64 132.435 10.36 131.675 9.56C130.935 8.74 129.855 8.33 128.435 8.33C127.855 8.33 127.285 8.41 126.725 8.57C126.185 8.73 125.705 8.97 125.285 9.29C124.865 9.61 124.525 10.01 124.265 10.49C124.025 10.97 123.905 11.53 123.905 12.17V23H122.855ZM149.573 20.63H149.483C149.143 21.35 148.573 21.99 147.773 22.55C146.973 23.09 145.933 23.36 144.653 23.36C142.653 23.36 141.093 22.69 139.973 21.35C138.873 19.99 138.323 18 138.323 15.38C138.323 12.76 138.873 10.78 139.973 9.44C141.093 8.08 142.653 7.4 144.653 7.4C145.933 7.4 146.973 7.67 147.773 8.21C148.573 8.75 149.143 9.39 149.483 10.13H149.573V0.8H150.623V23H149.573V20.63ZM144.803 22.4C145.443 22.4 146.053 22.31 146.633 22.13C147.213 21.95 147.713 21.69 148.133 21.35C148.573 21.01 148.923 20.61 149.183 20.15C149.443 19.67 149.573 19.14 149.573 18.56V12.14C149.573 11.58 149.443 11.07 149.183 10.61C148.923 10.13 148.573 9.73 148.133 9.41C147.713 9.07 147.213 8.81 146.633 8.63C146.053 8.43 145.443 8.33 144.803 8.33C143.103 8.33 141.783 8.89 140.843 10.01C139.923 11.11 139.463 12.61 139.463 14.51V16.25C139.463 18.15 139.923 19.65 140.843 20.75C141.783 21.85 143.103 22.4 144.803 22.4Z" fill="black"/>
</svg>
